{
	"asset":{
		"generator":"Khronos glTF Blender I/O v4.0.44",
		"version":"2.0"
	},
	"scene":0,
	"scenes":[
		{
			"name":"Scene",
			"nodes":[
				0,
				1,
				2,
				3,
				4,
				5,
				6,
				7,
				8,
				9,
				10,
				11,
				12,
				13,
				14,
				15
			]
		}
	],
	"nodes":[
		{
			"mesh":0,
			"name":"Plane",
			"scale":[
				1.4474927186965942,
				0.16248999536037445,
				0.33968761563301086
			],
			"translation":[
				20.87023162841797,
				1.6659194231033325,
				33.31510925292969
			]
		},
		{
			"mesh":1,
			"name":"Plane.002",
			"scale":[
				1.4474927186965942,
				0.16248999536037445,
				0.33968761563301086
			],
			"translation":[
				18.23495101928711,
				2.070063591003418,
				37.55364227294922
			]
		},
		{
			"mesh":2,
			"name":"rock.001",
			"rotation":[
				-0.03112517111003399,
				0.0895238071680069,
				0.1647775024175644,
				0.9817663431167603
			],
			"scale":[
				1.0978569984436035,
				1.0978572368621826,
				1.097857117652893
			],
			"translation":[
				20.977081298828125,
				2.1261985301971436,
				33.71237564086914
			]
		},
		{
			"mesh":3,
			"name":"rock.002",
			"rotation":[
				-0.03112517111003399,
				0.0895238071680069,
				0.1647775024175644,
				0.9817663431167603
			],
			"scale":[
				1.0978569984436035,
				1.0978572368621826,
				1.097857117652893
			],
			"translation":[
				-3.4117584228515625,
				1.7145779132843018,
				33.670711517333984
			]
		},
		{
			"mesh":4,
			"name":"rock.003",
			"rotation":[
				-0.13515327870845795,
				-0.6313248872756958,
				0.0916992574930191,
				0.7581251859664917
			],
			"scale":[
				1.0978567600250244,
				1.097856879234314,
				1.097857117652893
			],
			"translation":[
				21.656322479248047,
				1.8262760639190674,
				57.41883850097656
			]
		},
		{
			"mesh":5,
			"name":"Plane.001",
			"rotation":[
				0,
				-0.7071068286895752,
				0,
				0.7071068286895752
			],
			"scale":[
				1.4474927186965942,
				0.16248999536037445,
				0.33968761563301086
			],
			"translation":[
				17.770122528076172,
				1.9605700969696045,
				66.7117919921875
			]
		},
		{
			"mesh":6,
			"name":"Landscape",
			"scale":[
				19.77082633972168,
				12.129499435424805,
				12.129499435424805
			],
			"translation":[
				3.528052806854248,
				1.6099337339401245,
				47.432884216308594
			]
		},
		{
			"mesh":7,
			"name":"Plane.003",
			"scale":[
				38.847900390625,
				23.946943283081055,
				23.946943283081055
			],
			"translation":[
				-6.743579864501953,
				1.4529476165771484,
				-6.025249481201172
			]
		},
		{
			"mesh":8,
			"name":"Cylinder",
			"scale":[
				1.5767191648483276,
				1.5767191648483276,
				1.5767191648483276
			],
			"translation":[
				1.6103328466415405,
				2.9963297843933105,
				13.839743614196777
			]
		},
		{
			"mesh":9,
			"name":"Cylinder.001",
			"scale":[
				1.2667452096939087,
				1.2667452096939087,
				1.2667452096939087
			],
			"translation":[
				9.667135238647461,
				2.2122642993927,
				8.558720588684082
			]
		},
		{
			"mesh":10,
			"name":"Cylinder.002",
			"scale":[
				1.2667452096939087,
				1.2667452096939087,
				1.2667452096939087
			],
			"translation":[
				15.393763542175293,
				0.44838425517082214,
				0.7877798676490784
			]
		},
		{
			"mesh":11,
			"name":"Cylinder.003",
			"scale":[
				1.5767191648483276,
				1.5767191648483276,
				1.5767191648483276
			],
			"translation":[
				14.023354530334473,
				2.202064037322998,
				-11.19351863861084
			]
		},
		{
			"mesh":12,
			"name":"Cylinder.004",
			"rotation":[
				1,
				0,
				0,
				0
			],
			"scale":[
				-1.5767191648483276,
				-1.5767191648483276,
				-1.5767191648483276
			],
			"translation":[
				-18.764339447021484,
				3.5600087642669678,
				12.064287185668945
			]
		},
		{
			"mesh":13,
			"name":"Cylinder.005",
			"rotation":[
				1,
				0,
				0,
				0
			],
			"scale":[
				-1.2667452096939087,
				-1.2667452096939087,
				-1.2667452096939087
			],
			"translation":[
				-26.82114028930664,
				2.7759430408477783,
				6.783263683319092
			]
		},
		{
			"mesh":14,
			"name":"Cylinder.006",
			"rotation":[
				1,
				0,
				0,
				0
			],
			"scale":[
				-1.2667452096939087,
				-1.2667452096939087,
				-1.2667452096939087
			],
			"translation":[
				-32.54777145385742,
				1.0120632648468018,
				-0.987676739692688
			]
		},
		{
			"mesh":15,
			"name":"Cylinder.007",
			"rotation":[
				1,
				0,
				0,
				0
			],
			"scale":[
				-1.5767191648483276,
				-1.5767191648483276,
				-1.5767191648483276
			],
			"translation":[
				-31.17736053466797,
				2.7657430171966553,
				-12.968975067138672
			]
		}
	],
	"materials":[
		{
			"doubleSided":true,
			"name":"Material.001",
			"normalTexture":{
				"index":0
			},
			"pbrMetallicRoughness":{
				"baseColorTexture":{
					"index":1
				},
				"metallicFactor":0,
				"metallicRoughnessTexture":{
					"index":2
				}
			}
		},
		{
			"doubleSided":true,
			"name":"Material.002",
			"normalTexture":{
				"index":3
			},
			"pbrMetallicRoughness":{
				"baseColorTexture":{
					"index":4
				},
				"metallicFactor":0,
				"metallicRoughnessTexture":{
					"index":5
				}
			}
		},
		{
			"doubleSided":true,
			"name":"rock",
			"pbrMetallicRoughness":{
				"baseColorTexture":{
					"index":6
				},
				"metallicFactor":0,
				"roughnessFactor":0.5
			}
		},
		{
			"doubleSided":true,
			"name":"Material",
			"normalTexture":{
				"index":7
			},
			"pbrMetallicRoughness":{
				"baseColorTexture":{
					"index":8
				},
				"metallicFactor":0,
				"metallicRoughnessTexture":{
					"index":9
				}
			}
		}
	],
	"meshes":[
		{
			"name":"Plane",
			"primitives":[
				{
					"attributes":{
						"POSITION":0,
						"NORMAL":1,
						"TEXCOORD_0":2
					},
					"indices":3,
					"material":0
				}
			]
		},
		{
			"name":"Plane.003",
			"primitives":[
				{
					"attributes":{
						"POSITION":4,
						"NORMAL":5,
						"TEXCOORD_0":6
					},
					"indices":7,
					"material":1
				}
			]
		},
		{
			"name":"rock.001",
			"primitives":[
				{
					"attributes":{
						"POSITION":8,
						"NORMAL":9,
						"TEXCOORD_0":10
					},
					"indices":11,
					"material":2
				}
			]
		},
		{
			"name":"rock.012",
			"primitives":[
				{
					"attributes":{
						"POSITION":12,
						"NORMAL":13,
						"TEXCOORD_0":14
					},
					"indices":15,
					"material":2
				}
			]
		},
		{
			"name":"rock.013",
			"primitives":[
				{
					"attributes":{
						"POSITION":16,
						"NORMAL":17,
						"TEXCOORD_0":18
					},
					"indices":11,
					"material":2
				}
			]
		},
		{
			"name":"Plane.004",
			"primitives":[
				{
					"attributes":{
						"POSITION":19,
						"NORMAL":20,
						"TEXCOORD_0":21
					},
					"indices":22,
					"material":1
				}
			]
		},
		{
			"name":"Landscape",
			"primitives":[
				{
					"attributes":{
						"POSITION":23,
						"NORMAL":24
					},
					"indices":25,
					"material":1
				}
			]
		},
		{
			"name":"Plane.006",
			"primitives":[
				{
					"attributes":{
						"POSITION":26,
						"NORMAL":27,
						"TEXCOORD_0":28
					},
					"indices":29,
					"material":0
				}
			]
		},
		{
			"name":"Cylinder.001",
			"primitives":[
				{
					"attributes":{
						"POSITION":30,
						"NORMAL":31,
						"TEXCOORD_0":32
					},
					"indices":33
				}
			]
		},
		{
			"name":"Cylinder.002",
			"primitives":[
				{
					"attributes":{
						"POSITION":34,
						"NORMAL":35,
						"TEXCOORD_0":36
					},
					"indices":33
				}
			]
		},
		{
			"name":"Cylinder.003",
			"primitives":[
				{
					"attributes":{
						"POSITION":37,
						"NORMAL":38,
						"TEXCOORD_0":39
					},
					"indices":33
				}
			]
		},
		{
			"name":"Cylinder.004",
			"primitives":[
				{
					"attributes":{
						"POSITION":40,
						"NORMAL":41,
						"TEXCOORD_0":42
					},
					"indices":33
				}
			]
		},
		{
			"name":"Cylinder.005",
			"primitives":[
				{
					"attributes":{
						"POSITION":43,
						"NORMAL":44,
						"TEXCOORD_0":45
					},
					"indices":33,
					"material":3
				}
			]
		},
		{
			"name":"Cylinder.006",
			"primitives":[
				{
					"attributes":{
						"POSITION":46,
						"NORMAL":47,
						"TEXCOORD_0":48
					},
					"indices":33,
					"material":3
				}
			]
		},
		{
			"name":"Cylinder.007",
			"primitives":[
				{
					"attributes":{
						"POSITION":49,
						"NORMAL":50,
						"TEXCOORD_0":51
					},
					"indices":33
				}
			]
		},
		{
			"name":"Cylinder.008",
			"primitives":[
				{
					"attributes":{
						"POSITION":52,
						"NORMAL":53,
						"TEXCOORD_0":54
					},
					"indices":33
				}
			]
		}
	],
	"textures":[
		{
			"sampler":0,
			"source":0
		},
		{
			"sampler":0,
			"source":1
		},
		{
			"sampler":0,
			"source":2
		},
		{
			"sampler":0,
			"source":3
		},
		{
			"sampler":0,
			"source":4
		},
		{
			"sampler":0,
			"source":5
		},
		{
			"sampler":0,
			"source":6
		},
		{
			"sampler":0,
			"source":0
		},
		{
			"sampler":0,
			"source":7
		},
		{
			"sampler":0,
			"source":8
		}
	],
	"images":[
		{
			"mimeType":"image/png",
			"name":"gray_rocks_nor_gl_1k",
			"uri":"gray_rocks_nor_gl_1k.png"
		},
		{
			"mimeType":"image/jpeg",
			"name":"gray_rocks_diff_1k",
			"uri":"gray_rocks_diff_1k.jpg"
		},
		{
			"mimeType":"image/png",
			"name":"gray_rocks_rough_1k",
			"uri":"gray_rocks_rough_1k.png"
		},
		{
			"mimeType":"image/png",
			"name":"rock_surface_nor_gl_1k",
			"uri":"rock_surface_nor_gl_1k.png"
		},
		{
			"mimeType":"image/jpeg",
			"name":"rock_surface_diff_1k",
			"uri":"rock_surface_diff_1k.jpg"
		},
		{
			"mimeType":"image/png",
			"name":"rock_surface_rough_1k",
			"uri":"rock_surface_rough_1k.png"
		},
		{
			"mimeType":"image/jpeg",
			"name":"High-Def-Stone-Wall-Moss-Growth-Texture",
			"uri":"High-Def-Stone-Wall-Moss-Growth-Texture.jpg"
		},
		{
			"mimeType":"image/jpeg",
			"name":"rock_08_diff_1k",
			"uri":"rock_08_diff_1k.jpg"
		},
		{
			"mimeType":"image/png",
			"name":"rock_08_rough_1k",
			"uri":"rock_08_rough_1k.png"
		}
	],
	"accessors":[
		{
			"bufferView":0,
			"componentType":5126,
			"count":110,
			"max":[
				6.711250305175781,
				3.612787961959839,
				73.95249938964844
			],
			"min":[
				-20.373998641967773,
				-1.7870303392410278,
				-52.26700973510742
			],
			"type":"VEC3"
		},
		{
			"bufferView":1,
			"componentType":5126,
			"count":110,
			"type":"VEC3"
		},
		{
			"bufferView":2,
			"componentType":5126,
			"count":110,
			"type":"VEC2"
		},
		{
			"bufferView":3,
			"componentType":5123,
			"count":288,
			"type":"SCALAR"
		},
		{
			"bufferView":4,
			"componentType":5126,
			"count":126,
			"max":[
				2.5329225063323975,
				3.167245864868164,
				5.552878379821777
			],
			"min":[
				-20.35745620727539,
				-1.5828882455825806,
				-12.604094505310059
			],
			"type":"VEC3"
		},
		{
			"bufferView":5,
			"componentType":5126,
			"count":126,
			"type":"VEC3"
		},
		{
			"bufferView":6,
			"componentType":5126,
			"count":126,
			"type":"VEC2"
		},
		{
			"bufferView":7,
			"componentType":5123,
			"count":510,
			"type":"SCALAR"
		},
		{
			"bufferView":8,
			"componentType":5126,
			"count":228,
			"max":[
				1.4424482583999634,
				7.749520301818848,
				0.7352352142333984
			],
			"min":[
				-21.151317596435547,
				-0.9140421152114868,
				-4.496949195861816
			],
			"type":"VEC3"
		},
		{
			"bufferView":9,
			"componentType":5126,
			"count":228,
			"type":"VEC3"
		},
		{
			"bufferView":10,
			"componentType":5126,
			"count":228,
			"type":"VEC2"
		},
		{
			"bufferView":11,
			"componentType":5123,
			"count":324,
			"type":"SCALAR"
		},
		{
			"bufferView":12,
			"componentType":5126,
			"count":220,
			"max":[
				1.442448377609253,
				2.814833164215088,
				0.7352350950241089
			],
			"min":[
				-5.0356950759887695,
				-0.9140446186065674,
				-16.172163009643555
			],
			"type":"VEC3"
		},
		{
			"bufferView":13,
			"componentType":5126,
			"count":220,
			"type":"VEC3"
		},
		{
			"bufferView":14,
			"componentType":5126,
			"count":220,
			"type":"VEC2"
		},
		{
			"bufferView":15,
			"componentType":5123,
			"count":324,
			"type":"SCALAR"
		},
		{
			"bufferView":16,
			"componentType":5126,
			"count":228,
			"max":[
				1.4424482583999634,
				7.749520301818848,
				0.7352352142333984
			],
			"min":[
				-21.151317596435547,
				-0.9140421152114868,
				-4.496949195861816
			],
			"type":"VEC3"
		},
		{
			"bufferView":17,
			"componentType":5126,
			"count":228,
			"type":"VEC3"
		},
		{
			"bufferView":18,
			"componentType":5126,
			"count":228,
			"type":"VEC2"
		},
		{
			"bufferView":19,
			"componentType":5126,
			"count":84,
			"max":[
				-5.861425399780273,
				1.7353837490081787,
				3.1127750873565674
			],
			"min":[
				-20.35745620727539,
				-1.5828882455825806,
				-12.604094505310059
			],
			"type":"VEC3"
		},
		{
			"bufferView":20,
			"componentType":5126,
			"count":84,
			"type":"VEC3"
		},
		{
			"bufferView":21,
			"componentType":5126,
			"count":84,
			"type":"VEC2"
		},
		{
			"bufferView":22,
			"componentType":5123,
			"count":330,
			"type":"SCALAR"
		},
		{
			"bufferView":23,
			"componentType":5126,
			"count":16384,
			"max":[
				1,
				0.35665643215179443,
				1
			],
			"min":[
				-1,
				0,
				-1
			],
			"type":"VEC3"
		},
		{
			"bufferView":24,
			"componentType":5126,
			"count":16384,
			"type":"VEC3"
		},
		{
			"bufferView":25,
			"componentType":5123,
			"count":96774,
			"type":"SCALAR"
		},
		{
			"bufferView":26,
			"componentType":5126,
			"count":4,
			"max":[
				1,
				0,
				1
			],
			"min":[
				-1,
				0,
				-1
			],
			"type":"VEC3"
		},
		{
			"bufferView":27,
			"componentType":5126,
			"count":4,
			"type":"VEC3"
		},
		{
			"bufferView":28,
			"componentType":5126,
			"count":4,
			"type":"VEC2"
		},
		{
			"bufferView":29,
			"componentType":5123,
			"count":6,
			"type":"SCALAR"
		},
		{
			"bufferView":30,
			"componentType":5126,
			"count":931,
			"max":[
				1.00091552734375,
				14.347919464111328,
				1.00091552734375
			],
			"min":[
				-1.0009154081344604,
				-1,
				-1.00091552734375
			],
			"type":"VEC3"
		},
		{
			"bufferView":31,
			"componentType":5126,
			"count":931,
			"type":"VEC3"
		},
		{
			"bufferView":32,
			"componentType":5126,
			"count":931,
			"type":"VEC2"
		},
		{
			"bufferView":33,
			"componentType":5123,
			"count":2676,
			"type":"SCALAR"
		},
		{
			"bufferView":34,
			"componentType":5126,
			"count":931,
			"max":[
				1.00091552734375,
				14.347919464111328,
				1.00091552734375
			],
			"min":[
				-1.0009154081344604,
				-1,
				-1.00091552734375
			],
			"type":"VEC3"
		},
		{
			"bufferView":35,
			"componentType":5126,
			"count":931,
			"type":"VEC3"
		},
		{
			"bufferView":36,
			"componentType":5126,
			"count":931,
			"type":"VEC2"
		},
		{
			"bufferView":37,
			"componentType":5126,
			"count":931,
			"max":[
				1.00091552734375,
				14.347919464111328,
				1.00091552734375
			],
			"min":[
				-1.0009154081344604,
				-1,
				-1.00091552734375
			],
			"type":"VEC3"
		},
		{
			"bufferView":38,
			"componentType":5126,
			"count":931,
			"type":"VEC3"
		},
		{
			"bufferView":39,
			"componentType":5126,
			"count":931,
			"type":"VEC2"
		},
		{
			"bufferView":40,
			"componentType":5126,
			"count":931,
			"max":[
				1.00091552734375,
				14.347919464111328,
				1.00091552734375
			],
			"min":[
				-1.0009154081344604,
				-1,
				-1.00091552734375
			],
			"type":"VEC3"
		},
		{
			"bufferView":41,
			"componentType":5126,
			"count":931,
			"type":"VEC3"
		},
		{
			"bufferView":42,
			"componentType":5126,
			"count":931,
			"type":"VEC2"
		},
		{
			"bufferView":43,
			"componentType":5126,
			"count":931,
			"max":[
				1.00091552734375,
				14.347919464111328,
				1.00091552734375
			],
			"min":[
				-1.0009154081344604,
				-1,
				-1.00091552734375
			],
			"type":"VEC3"
		},
		{
			"bufferView":44,
			"componentType":5126,
			"count":931,
			"type":"VEC3"
		},
		{
			"bufferView":45,
			"componentType":5126,
			"count":931,
			"type":"VEC2"
		},
		{
			"bufferView":46,
			"componentType":5126,
			"count":931,
			"max":[
				1.00091552734375,
				14.347919464111328,
				1.00091552734375
			],
			"min":[
				-1.0009154081344604,
				-1,
				-1.00091552734375
			],
			"type":"VEC3"
		},
		{
			"bufferView":47,
			"componentType":5126,
			"count":931,
			"type":"VEC3"
		},
		{
			"bufferView":48,
			"componentType":5126,
			"count":931,
			"type":"VEC2"
		},
		{
			"bufferView":49,
			"componentType":5126,
			"count":931,
			"max":[
				1.00091552734375,
				14.347919464111328,
				1.00091552734375
			],
			"min":[
				-1.0009154081344604,
				-1,
				-1.00091552734375
			],
			"type":"VEC3"
		},
		{
			"bufferView":50,
			"componentType":5126,
			"count":931,
			"type":"VEC3"
		},
		{
			"bufferView":51,
			"componentType":5126,
			"count":931,
			"type":"VEC2"
		},
		{
			"bufferView":52,
			"componentType":5126,
			"count":931,
			"max":[
				1.00091552734375,
				14.347919464111328,
				1.00091552734375
			],
			"min":[
				-1.0009154081344604,
				-1,
				-1.00091552734375
			],
			"type":"VEC3"
		},
		{
			"bufferView":53,
			"componentType":5126,
			"count":931,
			"type":"VEC3"
		},
		{
			"bufferView":54,
			"componentType":5126,
			"count":931,
			"type":"VEC2"
		}
	],
	"bufferViews":[
		{
			"buffer":0,
			"byteLength":1320,
			"byteOffset":0,
			"target":34962
		},
		{
			"buffer":0,
			"byteLength":1320,
			"byteOffset":1320,
			"target":34962
		},
		{
			"buffer":0,
			"byteLength":880,
			"byteOffset":2640,
			"target":34962
		},
		{
			"buffer":0,
			"byteLength":576,
			"byteOffset":3520,
			"target":34963
		},
		{
			"buffer":0,
			"byteLength":1512,
			"byteOffset":4096,
			"target":34962
		},
		{
			"buffer":0,
			"byteLength":1512,
			"byteOffset":5608,
			"target":34962
		},
		{
			"buffer":0,
			"byteLength":1008,
			"byteOffset":7120,
			"target":34962
		},
		{
			"buffer":0,
			"byteLength":1020,
			"byteOffset":8128,
			"target":34963
		},
		{
			"buffer":0,
			"byteLength":2736,
			"byteOffset":9148,
			"target":34962
		},
		{
			"buffer":0,
			"byteLength":2736,
			"byteOffset":11884,
			"target":34962
		},
		{
			"buffer":0,
			"byteLength":1824,
			"byteOffset":14620,
			"target":34962
		},
		{
			"buffer":0,
			"byteLength":648,
			"byteOffset":16444,
			"target":34963
		},
		{
			"buffer":0,
			"byteLength":2640,
			"byteOffset":17092,
			"target":34962
		},
		{
			"buffer":0,
			"byteLength":2640,
			"byteOffset":19732,
			"target":34962
		},
		{
			"buffer":0,
			"byteLength":1760,
			"byteOffset":22372,
			"target":34962
		},
		{
			"buffer":0,
			"byteLength":648,
			"byteOffset":24132,
			"target":34963
		},
		{
			"buffer":0,
			"byteLength":2736,
			"byteOffset":24780,
			"target":34962
		},
		{
			"buffer":0,
			"byteLength":2736,
			"byteOffset":27516,
			"target":34962
		},
		{
			"buffer":0,
			"byteLength":1824,
			"byteOffset":30252,
			"target":34962
		},
		{
			"buffer":0,
			"byteLength":1008,
			"byteOffset":32076,
			"target":34962
		},
		{
			"buffer":0,
			"byteLength":1008,
			"byteOffset":33084,
			"target":34962
		},
		{
			"buffer":0,
			"byteLength":672,
			"byteOffset":34092,
			"target":34962
		},
		{
			"buffer":0,
			"byteLength":660,
			"byteOffset":34764,
			"target":34963
		},
		{
			"buffer":0,
			"byteLength":196608,
			"byteOffset":35424,
			"target":34962
		},
		{
			"buffer":0,
			"byteLength":196608,
			"byteOffset":232032,
			"target":34962
		},
		{
			"buffer":0,
			"byteLength":193548,
			"byteOffset":428640,
			"target":34963
		},
		{
			"buffer":0,
			"byteLength":48,
			"byteOffset":622188,
			"target":34962
		},
		{
			"buffer":0,
			"byteLength":48,
			"byteOffset":622236,
			"target":34962
		},
		{
			"buffer":0,
			"byteLength":32,
			"byteOffset":622284,
			"target":34962
		},
		{
			"buffer":0,
			"byteLength":12,
			"byteOffset":622316,
			"target":34963
		},
		{
			"buffer":0,
			"byteLength":11172,
			"byteOffset":622328,
			"target":34962
		},
		{
			"buffer":0,
			"byteLength":11172,
			"byteOffset":633500,
			"target":34962
		},
		{
			"buffer":0,
			"byteLength":7448,
			"byteOffset":644672,
			"target":34962
		},
		{
			"buffer":0,
			"byteLength":5352,
			"byteOffset":652120,
			"target":34963
		},
		{
			"buffer":0,
			"byteLength":11172,
			"byteOffset":657472,
			"target":34962
		},
		{
			"buffer":0,
			"byteLength":11172,
			"byteOffset":668644,
			"target":34962
		},
		{
			"buffer":0,
			"byteLength":7448,
			"byteOffset":679816,
			"target":34962
		},
		{
			"buffer":0,
			"byteLength":11172,
			"byteOffset":687264,
			"target":34962
		},
		{
			"buffer":0,
			"byteLength":11172,
			"byteOffset":698436,
			"target":34962
		},
		{
			"buffer":0,
			"byteLength":7448,
			"byteOffset":709608,
			"target":34962
		},
		{
			"buffer":0,
			"byteLength":11172,
			"byteOffset":717056,
			"target":34962
		},
		{
			"buffer":0,
			"byteLength":11172,
			"byteOffset":728228,
			"target":34962
		},
		{
			"buffer":0,
			"byteLength":7448,
			"byteOffset":739400,
			"target":34962
		},
		{
			"buffer":0,
			"byteLength":11172,
			"byteOffset":746848,
			"target":34962
		},
		{
			"buffer":0,
			"byteLength":11172,
			"byteOffset":758020,
			"target":34962
		},
		{
			"buffer":0,
			"byteLength":7448,
			"byteOffset":769192,
			"target":34962
		},
		{
			"buffer":0,
			"byteLength":11172,
			"byteOffset":776640,
			"target":34962
		},
		{
			"buffer":0,
			"byteLength":11172,
			"byteOffset":787812,
			"target":34962
		},
		{
			"buffer":0,
			"byteLength":7448,
			"byteOffset":798984,
			"target":34962
		},
		{
			"buffer":0,
			"byteLength":11172,
			"byteOffset":806432,
			"target":34962
		},
		{
			"buffer":0,
			"byteLength":11172,
			"byteOffset":817604,
			"target":34962
		},
		{
			"buffer":0,
			"byteLength":7448,
			"byteOffset":828776,
			"target":34962
		},
		{
			"buffer":0,
			"byteLength":11172,
			"byteOffset":836224,
			"target":34962
		},
		{
			"buffer":0,
			"byteLength":11172,
			"byteOffset":847396,
			"target":34962
		},
		{
			"buffer":0,
			"byteLength":7448,
			"byteOffset":858568,
			"target":34962
		}
	],
	"samplers":[
		{
			"magFilter":9729,
			"minFilter":9987
		}
	],
	"buffers":[
		{
			"byteLength":866016,
			"uri":"place.bin"
		}
	]
}
